<mxfile host="app.diagrams.net" agent="Mozilla/5.0 (Macintosh; Intel Mac OS X 10_15_7) AppleWebKit/605.1.15 (KHTML, like Gecko) Version/18.1 Safari/605.1.15" version="26.2.12">
  <diagram name="第 1 页" id="GI3FFYo5OGEZDx6VCfR-">
    <mxGraphModel dx="1189" dy="1854" grid="1" gridSize="10" guides="1" tooltips="1" connect="1" arrows="1" fold="1" page="1" pageScale="1" pageWidth="1169" pageHeight="827" math="1" shadow="0">
      <root>
        <mxCell id="0" />
        <mxCell id="1" parent="0" />
        <mxCell id="OjidHEwg86gl5rYj82kp-1" value="" style="rounded=1;whiteSpace=wrap;html=1;fillColor=#cce5ff;strokeColor=#36393d;arcSize=17;" parent="1" vertex="1">
          <mxGeometry x="330" y="-780" width="490" height="520" as="geometry" />
        </mxCell>
        <UserObject label="&lt;span style=&quot;caret-color: rgb(255, 64, 19); color: rgb(255, 64, 19); font-family: &amp;quot;Times New Roman&amp;quot;; font-size: 20px; font-weight: 700;&quot;&gt;Phantom Guiding Vessel&lt;/span&gt;" tags="流程图" id="OjidHEwg86gl5rYj82kp-6">
          <mxCell style="verticalAlign=middle;align=center;overflow=width;vsdxID=235;rotation=0;fillColor=#dae8fc;shape=stencil(nZBLDoAgDERP0z3SIyjew0SURgSD+Lu9kMZoXLhwN9O+tukAlrNpJg1SzDH4QW/URgNYgZTkjA4UkwJUgGXng+6DX1zLfmoymdXo17xh5zmRJ6Q42BWCfc2oJfdAr+Yv+AP9Cb7OJ3H/2JG1HNGz/84klThPVCc=);strokeColor=#6c8ebf;shadow=1;spacingTop=-1;spacingBottom=-1;spacingLeft=-1;spacingRight=-1;points=[[1,0.5,0],[0.5,0.5,0],[0.5,0,0]];labelBackgroundColor=none;rounded=0;html=1;whiteSpace=wrap;fontStyle=2" parent="1" vertex="1">
            <mxGeometry x="314" y="-228" width="525" height="30" as="geometry" />
          </mxCell>
        </UserObject>
        <UserObject label="&lt;font style=&quot;font-size: 18px;&quot; face=&quot;Times New Roman&quot;&gt;&lt;i&gt;&lt;b&gt;Transformation Function \(sg(x_e^i)\)&lt;/b&gt;&lt;/i&gt;&lt;/font&gt;" tags="流程图" id="OjidHEwg86gl5rYj82kp-11">
          <mxCell style="verticalAlign=middle;align=center;overflow=width;vsdxID=280;fillColor=#92cddc;gradientColor=none;shape=stencil(nZBLDoAgDERP0z3SIyjew0SURgSD+Lu9kMZoXLhwN9O+tukAlrNpJg1SzDH4QW/URgNYgZTkjA4UkwJUgGXng+6DX1zLfmoymdXo17xh5zmRJ6Q42BWCfc2oJfdAr+Yv+AP9Cb7OJ3H/2JG1HNGz/84klThPVCc=);strokeColor=#000000;spacingTop=-1;spacingBottom=-1;spacingLeft=-1;spacingRight=-1;points=[[1,0.5,0],[0.5,0.5,0],[0.5,0,0]];labelBackgroundColor=none;rounded=0;html=1;whiteSpace=wrap;" parent="1" vertex="1">
            <mxGeometry x="486" y="-690.5" width="250" height="34" as="geometry" />
          </mxCell>
        </UserObject>
        <UserObject label="" tags="连接线" id="OjidHEwg86gl5rYj82kp-12">
          <mxCell style="vsdxID=289;edgeStyle=none;startArrow=none;endArrow=block;startSize=5;endSize=5;strokeWidth=3;strokeColor=#0070c0;spacingTop=0;spacingBottom=0;spacingLeft=0;spacingRight=0;verticalAlign=middle;html=1;labelBackgroundColor=#FFFFFF;rounded=0;exitX=0.226;exitY=-0.031;exitDx=0;exitDy=0;exitPerimeter=0;entryX=0;entryY=0.5;entryDx=0;entryDy=0;" parent="1" target="OjidHEwg86gl5rYj82kp-182" edge="1">
            <mxGeometry relative="1" as="geometry">
              <mxPoint as="offset" />
              <Array as="points" />
              <mxPoint x="311.2399999999998" y="-675.5" as="sourcePoint" />
              <mxPoint x="400" y="-675" as="targetPoint" />
            </mxGeometry>
          </mxCell>
        </UserObject>
        <mxCell id="OjidHEwg86gl5rYj82kp-60" parent="1" vertex="1">
          <mxGeometry x="398.5" y="-563" as="geometry" />
        </mxCell>
        <mxCell id="OjidHEwg86gl5rYj82kp-62" parent="1" vertex="1">
          <mxGeometry x="400.5" y="-675" as="geometry" />
        </mxCell>
        <mxCell id="OjidHEwg86gl5rYj82kp-149" value="&lt;i style=&quot;font-weight: 400; color: rgb(255, 38, 0);&quot;&gt;&lt;b&gt;&lt;font style=&quot;font-size: 37px;&quot;&gt;FTSA-LOS&lt;/font&gt;&lt;/b&gt;&lt;/i&gt;" style="text;html=1;align=center;verticalAlign=middle;whiteSpace=wrap;rounded=0;fontFamily=Times New Roman;fontStyle=3;fontSize=14;fontColor=light-dark(#ff4013, #ededed);" parent="1" vertex="1">
          <mxGeometry x="350" y="-760" width="207" height="35" as="geometry" />
        </mxCell>
        <UserObject label="&lt;div style=&quot;font-size: 1px&quot;&gt;&lt;font style=&quot;font-size: 22.58px; font-family: &amp;quot;Times New Roman&amp;quot;; direction: ltr; letter-spacing: 0px; line-height: 120%; opacity: 1;&quot;&gt;&lt;i style=&quot;color: light-dark(rgb(255, 38, 0), rgb(237, 237, 237));&quot;&gt;&lt;b&gt;FTSA-FLS&lt;/b&gt;&lt;/i&gt;&lt;/font&gt;&lt;/div&gt;" tags="流程图" id="OjidHEwg86gl5rYj82kp-152">
          <mxCell style="verticalAlign=middle;align=center;overflow=width;vsdxID=288;rotation=90;fillColor=#d5e8d4;shape=stencil(nZBLDoAgDERP0z3SIyjew0SURgSD+Lu9kMZoXLhwN9O+tukAlrNpJg1SzDH4QW/URgNYgZTkjA4UkwJUgGXng+6DX1zLfmoymdXo17xh5zmRJ6Q42BWCfc2oJfdAr+Yv+AP9Cb7OJ3H/2JG1HNGz/84klThPVCc=);strokeColor=#82b366;shadow=1;spacingTop=-1;spacingBottom=-1;spacingLeft=-1;spacingRight=-1;points=[[1,0.5,0],[0.5,0.5,0],[0.5,0,0]];labelBackgroundColor=none;rounded=0;html=1;whiteSpace=wrap;" parent="1" vertex="1">
            <mxGeometry x="581.5" y="-523" width="546" height="30" as="geometry" />
          </mxCell>
        </UserObject>
        <UserObject label="&lt;font style=&quot;font-size: 18px;&quot; face=&quot;Times New Roman&quot;&gt;&lt;i&gt;&lt;b&gt;Transformation Function \(sg(y_e^i)\)&lt;/b&gt;&lt;/i&gt;&lt;/font&gt;" tags="流程图" id="OjidHEwg86gl5rYj82kp-175">
          <mxCell style="verticalAlign=middle;align=center;overflow=width;vsdxID=280;fillColor=#92cddc;gradientColor=none;shape=stencil(nZBLDoAgDERP0z3SIyjew0SURgSD+Lu9kMZoXLhwN9O+tukAlrNpJg1SzDH4QW/URgNYgZTkjA4UkwJUgGXng+6DX1zLfmoymdXo17xh5zmRJ6Q42BWCfc2oJfdAr+Yv+AP9Cb7OJ3H/2JG1HNGz/84klThPVCc=);strokeColor=#000000;spacingTop=-1;spacingBottom=-1;spacingLeft=-1;spacingRight=-1;points=[[1,0.5,0],[0.5,0.5,0],[0.5,0,0]];labelBackgroundColor=none;rounded=0;html=1;whiteSpace=wrap;" parent="1" vertex="1">
            <mxGeometry x="489" y="-537" width="250" height="30" as="geometry" />
          </mxCell>
        </UserObject>
        <UserObject label="&lt;font style=&quot;font-size: 18px;&quot; face=&quot;Times New Roman&quot;&gt;&lt;i&gt;&lt;b&gt;Transformation Function \(sg(\psi_e^i)\)&lt;/b&gt;&lt;/i&gt;&lt;/font&gt;" tags="流程图" id="OjidHEwg86gl5rYj82kp-176">
          <mxCell style="verticalAlign=middle;align=center;overflow=width;vsdxID=280;fillColor=#92cddc;gradientColor=none;shape=stencil(nZBLDoAgDERP0z3SIyjew0SURgSD+Lu9kMZoXLhwN9O+tukAlrNpJg1SzDH4QW/URgNYgZTkjA4UkwJUgGXng+6DX1zLfmoymdXo17xh5zmRJ6Q42BWCfc2oJfdAr+Yv+AP9Cb7OJ3H/2JG1HNGz/84klThPVCc=);strokeColor=#000000;spacingTop=-1;spacingBottom=-1;spacingLeft=-1;spacingRight=-1;points=[[1,0.5,0],[0.5,0.5,0],[0.5,0,0]];labelBackgroundColor=none;rounded=0;html=1;whiteSpace=wrap;" parent="1" vertex="1">
            <mxGeometry x="491.5" y="-386" width="250" height="30" as="geometry" />
          </mxCell>
        </UserObject>
        <UserObject label="&lt;font face=&quot;Times New Roman&quot; color=&quot;rgb(255, 64, 19)&quot;&gt;&lt;span style=&quot;caret-color: rgb(255, 64, 19); font-size: 20px;&quot;&gt;&lt;b&gt;Communication Network&lt;/b&gt;&lt;/span&gt;&lt;/font&gt;" tags="流程图" id="OjidHEwg86gl5rYj82kp-180">
          <mxCell style="verticalAlign=middle;align=center;overflow=width;vsdxID=235;rotation=90;fillColor=#eeeeee;shape=stencil(nZBLDoAgDERP0z3SIyjew0SURgSD+Lu9kMZoXLhwN9O+tukAlrNpJg1SzDH4QW/URgNYgZTkjA4UkwJUgGXng+6DX1zLfmoymdXo17xh5zmRJ6Q42BWCfc2oJfdAr+Yv+AP9Cb7OJ3H/2JG1HNGz/84klThPVCc=);strokeColor=#36393d;shadow=1;spacingTop=-1;spacingBottom=-1;spacingLeft=-1;spacingRight=-1;points=[[1,0.5,0],[0.5,0.5,0],[0.5,0,0]];labelBackgroundColor=none;rounded=0;html=1;whiteSpace=wrap;fontStyle=2" parent="1" vertex="1">
            <mxGeometry x="21.63" y="-521.87" width="543.25" height="33.5" as="geometry" />
          </mxCell>
        </UserObject>
        <mxCell id="OjidHEwg86gl5rYj82kp-182" value="" style="shape=sumEllipse;perimeter=ellipsePerimeter;whiteSpace=wrap;html=1;backgroundOutline=1;" parent="1" vertex="1">
          <mxGeometry x="421.5" y="-683.5" width="20" height="17" as="geometry" />
        </mxCell>
        <mxCell id="OjidHEwg86gl5rYj82kp-188" value="" style="shape=sumEllipse;perimeter=ellipsePerimeter;whiteSpace=wrap;html=1;backgroundOutline=1;" parent="1" vertex="1">
          <mxGeometry x="394.5" y="-530.5" width="20" height="17" as="geometry" />
        </mxCell>
        <mxCell id="OjidHEwg86gl5rYj82kp-189" value="" style="shape=sumEllipse;perimeter=ellipsePerimeter;whiteSpace=wrap;html=1;backgroundOutline=1;" parent="1" vertex="1">
          <mxGeometry x="360.5" y="-386" width="20" height="17" as="geometry" />
        </mxCell>
        <UserObject label="" tags="连接线" id="OjidHEwg86gl5rYj82kp-192">
          <mxCell style="vsdxID=289;edgeStyle=none;startArrow=none;endArrow=block;startSize=5;endSize=5;strokeWidth=3;strokeColor=#0070c0;spacingTop=0;spacingBottom=0;spacingLeft=0;spacingRight=0;verticalAlign=middle;html=1;labelBackgroundColor=#FFFFFF;rounded=0;entryX=0.5;entryY=1;entryDx=0;entryDy=0;jumpStyle=arc;exitX=0.226;exitY=-0.052;exitDx=0;exitDy=0;exitPerimeter=0;" parent="1" source="OjidHEwg86gl5rYj82kp-6" edge="1">
            <mxGeometry relative="1" as="geometry">
              <mxPoint as="offset" />
              <Array as="points" />
              <mxPoint x="431.79999999999995" y="-214.7199999999998" as="sourcePoint" />
              <mxPoint x="431.5" y="-666.5000000000005" as="targetPoint" />
            </mxGeometry>
          </mxCell>
        </UserObject>
        <UserObject label="" tags="连接线" id="OjidHEwg86gl5rYj82kp-193">
          <mxCell style="vsdxID=289;edgeStyle=none;startArrow=none;endArrow=block;startSize=5;endSize=5;strokeWidth=3;strokeColor=#0070c0;spacingTop=0;spacingBottom=0;spacingLeft=0;spacingRight=0;verticalAlign=middle;html=1;labelBackgroundColor=#FFFFFF;rounded=0;entryX=0.5;entryY=1;entryDx=0;entryDy=0;" parent="1" target="OjidHEwg86gl5rYj82kp-188" edge="1">
            <mxGeometry relative="1" as="geometry">
              <mxPoint as="offset" />
              <Array as="points" />
              <mxPoint x="405" y="-230" as="sourcePoint" />
              <mxPoint x="390" y="-480" as="targetPoint" />
            </mxGeometry>
          </mxCell>
        </UserObject>
        <UserObject label="" tags="连接线" id="OjidHEwg86gl5rYj82kp-194">
          <mxCell style="vsdxID=289;edgeStyle=none;startArrow=none;endArrow=block;startSize=5;endSize=5;strokeWidth=3;strokeColor=#0070c0;spacingTop=0;spacingBottom=0;spacingLeft=0;spacingRight=0;verticalAlign=middle;html=1;labelBackgroundColor=#FFFFFF;rounded=1;entryX=-0.007;entryY=0.856;entryDx=0;entryDy=0;entryPerimeter=0;curved=0;" parent="1" target="OjidHEwg86gl5rYj82kp-201" edge="1">
            <mxGeometry relative="1" as="geometry">
              <mxPoint as="offset" />
              <Array as="points">
                <mxPoint x="457" y="-424" />
              </Array>
              <mxPoint x="457" y="-230" as="sourcePoint" />
              <mxPoint x="560" y="-410" as="targetPoint" />
            </mxGeometry>
          </mxCell>
        </UserObject>
        <UserObject label="" tags="连接线" id="OjidHEwg86gl5rYj82kp-196">
          <mxCell style="vsdxID=289;edgeStyle=none;startArrow=none;endArrow=block;startSize=5;endSize=5;strokeWidth=3;strokeColor=#0070c0;spacingTop=0;spacingBottom=0;spacingLeft=0;spacingRight=0;verticalAlign=middle;html=1;labelBackgroundColor=#FFFFFF;rounded=0;exitX=0.226;exitY=-0.031;exitDx=0;exitDy=0;exitPerimeter=0;entryX=0;entryY=0.5;entryDx=0;entryDy=0;" parent="1" target="OjidHEwg86gl5rYj82kp-188" edge="1">
            <mxGeometry relative="1" as="geometry">
              <mxPoint as="offset" />
              <Array as="points" />
              <mxPoint x="309.5" y="-522.71" as="sourcePoint" />
              <mxPoint x="398.5" y="-522.71" as="targetPoint" />
            </mxGeometry>
          </mxCell>
        </UserObject>
        <UserObject label="" tags="连接线" id="OjidHEwg86gl5rYj82kp-197">
          <mxCell style="vsdxID=289;edgeStyle=none;startArrow=none;endArrow=block;startSize=5;endSize=5;strokeWidth=3;strokeColor=#0070c0;spacingTop=0;spacingBottom=0;spacingLeft=0;spacingRight=0;verticalAlign=middle;html=1;labelBackgroundColor=#FFFFFF;rounded=0;exitX=0.226;exitY=-0.031;exitDx=0;exitDy=0;exitPerimeter=0;" parent="1" edge="1">
            <mxGeometry relative="1" as="geometry">
              <mxPoint as="offset" />
              <Array as="points" />
              <mxPoint x="309.5" y="-378.09000000000003" as="sourcePoint" />
              <mxPoint x="360" y="-378" as="targetPoint" />
            </mxGeometry>
          </mxCell>
        </UserObject>
        <UserObject label="&lt;b&gt;&lt;i&gt;&lt;font style=&quot;font-size: 18px;&quot; face=&quot;Times New Roman&quot;&gt;Fixed-Time&amp;nbsp;&lt;/font&gt;&lt;font style=&quot;font-size: 19px;&quot; face=&quot;Times New Roman&quot;&gt;Singularity-Avoidance&lt;/font&gt;&lt;font size=&quot;4&quot; face=&quot;Times New Roman&quot;&gt;&amp;nbsp;Guidance Law \(\alpha_u^i\)&lt;/font&gt;&lt;/i&gt;&lt;/b&gt;" tags="流程图" id="OjidHEwg86gl5rYj82kp-199">
          <mxCell style="verticalAlign=middle;align=center;overflow=width;vsdxID=280;fillColor=#92cddc;gradientColor=none;shape=stencil(nZBLDoAgDERP0z3SIyjew0SURgSD+Lu9kMZoXLhwN9O+tukAlrNpJg1SzDH4QW/URgNYgZTkjA4UkwJUgGXng+6DX1zLfmoymdXo17xh5zmRJ6Q42BWCfc2oJfdAr+Yv+AP9Cb7OJ3H/2JG1HNGz/84klThPVCc=);strokeColor=#000000;spacingTop=-1;spacingBottom=-1;spacingLeft=-1;spacingRight=-1;points=[[1,0.5,0],[0.5,0.5,0],[0.5,0,0]];labelBackgroundColor=none;rounded=0;html=1;whiteSpace=wrap;" parent="1" vertex="1">
            <mxGeometry x="489" y="-627.75" width="250" height="56" as="geometry" />
          </mxCell>
        </UserObject>
        <UserObject label="&lt;b&gt;&lt;i&gt;&lt;font style=&quot;font-size: 18px;&quot; face=&quot;Times New Roman&quot;&gt;Fixed-Time S&lt;/font&gt;&lt;font style=&quot;font-size: 19px;&quot; face=&quot;Times New Roman&quot;&gt;ingularity-Avoidance&lt;/font&gt;&lt;font size=&quot;4&quot; face=&quot;Times New Roman&quot;&gt;&amp;nbsp;Guidance Law \(\alpha_r^i\)&lt;/font&gt;&lt;/i&gt;&lt;/b&gt;" tags="流程图" id="OjidHEwg86gl5rYj82kp-200">
          <mxCell style="verticalAlign=middle;align=center;overflow=width;vsdxID=280;fillColor=#92cddc;gradientColor=none;shape=stencil(nZBLDoAgDERP0z3SIyjew0SURgSD+Lu9kMZoXLhwN9O+tukAlrNpJg1SzDH4QW/URgNYgZTkjA4UkwJUgGXng+6DX1zLfmoymdXo17xh5zmRJ6Q42BWCfc2oJfdAr+Yv+AP9Cb7OJ3H/2JG1HNGz/84klThPVCc=);strokeColor=#000000;spacingTop=-1;spacingBottom=-1;spacingLeft=-1;spacingRight=-1;points=[[1,0.5,0],[0.5,0.5,0],[0.5,0,0]];labelBackgroundColor=none;rounded=0;html=1;whiteSpace=wrap;" parent="1" vertex="1">
            <mxGeometry x="491.5" y="-322" width="250" height="56" as="geometry" />
          </mxCell>
        </UserObject>
        <UserObject label="&lt;b&gt;&lt;i&gt;&lt;font style=&quot;font-size: 18px;&quot; face=&quot;Times New Roman&quot;&gt;Fixed-Time&amp;nbsp;&lt;/font&gt;&lt;font style=&quot;font-size: 19px;&quot; face=&quot;Times New Roman&quot;&gt;singularity-Avoidance&lt;/font&gt;&lt;font size=&quot;4&quot; face=&quot;Times New Roman&quot;&gt;&amp;nbsp;Guidance Law \(\alpha_\psi^i\)&lt;/font&gt;&lt;/i&gt;&lt;/b&gt;" tags="流程图" id="OjidHEwg86gl5rYj82kp-201">
          <mxCell style="verticalAlign=middle;align=center;overflow=width;vsdxID=280;fillColor=#92cddc;gradientColor=none;shape=stencil(nZBLDoAgDERP0z3SIyjew0SURgSD+Lu9kMZoXLhwN9O+tukAlrNpJg1SzDH4QW/URgNYgZTkjA4UkwJUgGXng+6DX1zLfmoymdXo17xh5zmRJ6Q42BWCfc2oJfdAr+Yv+AP9Cb7OJ3H/2JG1HNGz/84klThPVCc=);strokeColor=#000000;spacingTop=-1;spacingBottom=-1;spacingLeft=-1;spacingRight=-1;points=[[1,0.5,0],[0.5,0.5,0],[0.5,0,0]];labelBackgroundColor=none;rounded=0;html=1;whiteSpace=wrap;" parent="1" vertex="1">
            <mxGeometry x="489" y="-472" width="250" height="56" as="geometry" />
          </mxCell>
        </UserObject>
        <mxCell id="OjidHEwg86gl5rYj82kp-203" value="&lt;i style=&quot;caret-color: rgb(0, 0, 0); color: rgb(0, 0, 0); font-family: &amp;quot;Times New Roman&amp;quot;; font-size: 18px; font-variant-caps: normal; font-weight: 400; letter-spacing: normal; text-align: center; text-indent: 0px; text-transform: none; white-space: normal; word-spacing: 0px; -webkit-text-stroke-width: 0px; text-decoration: none;&quot;&gt;&lt;b&gt;&lt;span class=&quot;Apple-converted-space&quot;&gt;&amp;nbsp;&lt;/span&gt;\(x_F^i\)&lt;/b&gt;&lt;/i&gt;" style="text;whiteSpace=wrap;html=1;" parent="1" vertex="1">
          <mxGeometry x="383.25" y="-708.5" width="34.5" height="32" as="geometry" />
        </mxCell>
        <mxCell id="OjidHEwg86gl5rYj82kp-204" value="&lt;i style=&quot;caret-color: rgb(0, 0, 0); color: rgb(0, 0, 0); font-family: &amp;quot;Times New Roman&amp;quot;; font-size: 18px; font-variant-caps: normal; font-weight: 400; letter-spacing: normal; text-align: center; text-indent: 0px; text-transform: none; white-space: normal; word-spacing: 0px; -webkit-text-stroke-width: 0px; text-decoration: none;&quot;&gt;&lt;b&gt;&lt;span class=&quot;Apple-converted-space&quot;&gt;&amp;nbsp;&lt;/span&gt;\(x_d^k\)&lt;/b&gt;&lt;/i&gt;" style="text;whiteSpace=wrap;html=1;" parent="1" vertex="1">
          <mxGeometry x="400.5" y="-666.5" width="27" height="26.5" as="geometry" />
        </mxCell>
        <mxCell id="OjidHEwg86gl5rYj82kp-205" value="&lt;i style=&quot;caret-color: rgb(0, 0, 0); color: rgb(0, 0, 0); font-family: &amp;quot;Times New Roman&amp;quot;; font-size: 18px; font-variant-caps: normal; font-weight: 400; letter-spacing: normal; text-align: center; text-indent: 0px; text-transform: none; white-space: normal; word-spacing: 0px; -webkit-text-stroke-width: 0px; text-decoration: none;&quot;&gt;&lt;b&gt;&lt;span class=&quot;Apple-converted-space&quot;&gt;&amp;nbsp;&lt;/span&gt;\(y_F^i\)&lt;/b&gt;&lt;/i&gt;" style="text;whiteSpace=wrap;html=1;" parent="1" vertex="1">
          <mxGeometry x="348.5" y="-560" width="38" height="40" as="geometry" />
        </mxCell>
        <mxCell id="OjidHEwg86gl5rYj82kp-206" value="&lt;i style=&quot;caret-color: rgb(0, 0, 0); color: rgb(0, 0, 0); font-family: &amp;quot;Times New Roman&amp;quot;; font-size: 18px; font-variant-caps: normal; font-weight: 400; letter-spacing: normal; text-align: center; text-indent: 0px; text-transform: none; white-space: normal; word-spacing: 0px; -webkit-text-stroke-width: 0px; text-decoration: none;&quot;&gt;&lt;b&gt;&lt;span class=&quot;Apple-converted-space&quot;&gt;&amp;nbsp;&lt;/span&gt;\(\psi_F^i\)&lt;/b&gt;&lt;/i&gt;" style="text;whiteSpace=wrap;html=1;" parent="1" vertex="1">
          <mxGeometry x="337" y="-376" width="37.5" height="40" as="geometry" />
        </mxCell>
        <mxCell id="OjidHEwg86gl5rYj82kp-207" value="&lt;i style=&quot;caret-color: rgb(0, 0, 0); color: rgb(0, 0, 0); font-family: &amp;quot;Times New Roman&amp;quot;; font-size: 18px; font-variant-caps: normal; font-weight: 400; letter-spacing: normal; text-align: center; text-indent: 0px; text-transform: none; white-space: normal; word-spacing: 0px; -webkit-text-stroke-width: 0px; text-decoration: none;&quot;&gt;&lt;b&gt;&lt;span class=&quot;Apple-converted-space&quot;&gt;&amp;nbsp;&lt;/span&gt;\(\alpha_d^k\)&lt;/b&gt;&lt;/i&gt;" style="text;whiteSpace=wrap;html=1;" parent="1" vertex="1">
          <mxGeometry x="459" y="-426" width="38" height="40" as="geometry" />
        </mxCell>
        <mxCell id="OjidHEwg86gl5rYj82kp-208" value="&lt;i style=&quot;caret-color: rgb(0, 0, 0); color: rgb(0, 0, 0); font-family: &amp;quot;Times New Roman&amp;quot;; font-size: 18px; font-variant-caps: normal; font-weight: 400; letter-spacing: normal; text-align: center; text-indent: 0px; text-transform: none; white-space: normal; word-spacing: 0px; -webkit-text-stroke-width: 0px; text-decoration: none;&quot;&gt;&lt;b&gt;&lt;span class=&quot;Apple-converted-space&quot;&gt;&amp;nbsp;&lt;/span&gt;\(y_d^k\)&lt;/b&gt;&lt;/i&gt;" style="text;whiteSpace=wrap;html=1;" parent="1" vertex="1">
          <mxGeometry x="370" y="-513.5" width="38" height="40" as="geometry" />
        </mxCell>
        <UserObject label="" tags="连接线" id="OjidHEwg86gl5rYj82kp-210">
          <mxCell style="vsdxID=289;edgeStyle=none;startArrow=none;endArrow=block;startSize=5;endSize=5;strokeWidth=3;strokeColor=#0070c0;spacingTop=0;spacingBottom=0;spacingLeft=0;spacingRight=0;verticalAlign=middle;html=1;labelBackgroundColor=#FFFFFF;rounded=0;exitX=1;exitY=0.5;exitDx=0;exitDy=0;entryX=-0.002;entryY=0.46;entryDx=0;entryDy=0;entryPerimeter=0;" parent="1" source="OjidHEwg86gl5rYj82kp-182" target="OjidHEwg86gl5rYj82kp-11" edge="1">
            <mxGeometry relative="1" as="geometry">
              <mxPoint as="offset" />
              <Array as="points" />
              <mxPoint x="451" y="-674" as="sourcePoint" />
              <mxPoint x="489" y="-674" as="targetPoint" />
            </mxGeometry>
          </mxCell>
        </UserObject>
        <UserObject label="" tags="连接线" id="OjidHEwg86gl5rYj82kp-211">
          <mxCell style="vsdxID=289;edgeStyle=none;startArrow=none;endArrow=block;startSize=5;endSize=5;strokeWidth=3;strokeColor=#0070c0;spacingTop=0;spacingBottom=0;spacingLeft=0;spacingRight=0;verticalAlign=middle;html=1;labelBackgroundColor=#FFFFFF;rounded=0;exitX=1;exitY=0.5;exitDx=0;exitDy=0;comic=0;enumerate=0;orthogonal=0;orthogonalLoop=0;ignoreEdge=0;noJump=0;metaEdit=0;fixDash=0;deletable=1;cloneable=1;movable=1;bendable=1;backgroundOutline=0;editable=1;resizable=1;rotatable=1;locked=0;connectable=1;anchorPointDirection=1;endFill=1;jumpStyle=arc;entryX=-0.007;entryY=0.529;entryDx=0;entryDy=0;entryPerimeter=0;" parent="1" source="OjidHEwg86gl5rYj82kp-188" target="OjidHEwg86gl5rYj82kp-175" edge="1">
            <mxGeometry relative="1" as="geometry">
              <mxPoint as="offset" />
              <Array as="points" />
              <mxPoint x="403.5" y="-522.2" as="sourcePoint" />
              <mxPoint x="457" y="-522" as="targetPoint" />
            </mxGeometry>
          </mxCell>
        </UserObject>
        <UserObject label="" tags="连接线" id="OjidHEwg86gl5rYj82kp-213">
          <mxCell style="vsdxID=289;edgeStyle=none;startArrow=none;endArrow=block;startSize=5;endSize=5;strokeWidth=3;strokeColor=#0070c0;spacingTop=0;spacingBottom=0;spacingLeft=0;spacingRight=0;verticalAlign=middle;html=1;labelBackgroundColor=#FFFFFF;rounded=0;exitX=1;exitY=0.5;exitDx=0;exitDy=0;comic=0;enumerate=0;orthogonal=0;orthogonalLoop=0;ignoreEdge=0;noJump=0;metaEdit=0;fixDash=0;deletable=1;cloneable=1;movable=1;bendable=1;backgroundOutline=0;editable=1;resizable=1;rotatable=1;locked=0;connectable=1;anchorPointDirection=1;endFill=1;jumpStyle=arc;entryX=0.001;entryY=0.413;entryDx=0;entryDy=0;entryPerimeter=0;" parent="1" target="OjidHEwg86gl5rYj82kp-176" edge="1">
            <mxGeometry relative="1" as="geometry">
              <mxPoint as="offset" />
              <Array as="points" />
              <mxPoint x="381.5" y="-374" as="sourcePoint" />
              <mxPoint x="437.5" y="-374" as="targetPoint" />
            </mxGeometry>
          </mxCell>
        </UserObject>
        <UserObject label="" tags="连接线" id="OjidHEwg86gl5rYj82kp-217">
          <mxCell style="vsdxID=289;edgeStyle=none;startArrow=none;endArrow=block;startSize=5;endSize=5;strokeWidth=3;strokeColor=#0070c0;spacingTop=0;spacingBottom=0;spacingLeft=0;spacingRight=0;verticalAlign=middle;html=1;labelBackgroundColor=#FFFFFF;rounded=1;exitX=-0.003;exitY=0.478;exitDx=0;exitDy=0;exitPerimeter=0;entryX=0.5;entryY=0;entryDx=0;entryDy=0;jumpStyle=arc;curved=0;" parent="1" source="OjidHEwg86gl5rYj82kp-201" target="OjidHEwg86gl5rYj82kp-189" edge="1">
            <mxGeometry relative="1" as="geometry">
              <mxPoint as="offset" />
              <Array as="points">
                <mxPoint x="371" y="-446" />
              </Array>
              <mxPoint x="319.5" y="-512.71" as="sourcePoint" />
              <mxPoint x="392" y="-512" as="targetPoint" />
            </mxGeometry>
          </mxCell>
        </UserObject>
        <mxCell id="OjidHEwg86gl5rYj82kp-218" value="&lt;b style=&quot;caret-color: rgb(0, 0, 0); color: rgb(0, 0, 0); font-family: Helvetica; font-size: 12px; font-style: normal; font-variant-caps: normal; letter-spacing: normal; orphans: auto; text-align: center; text-indent: 0px; text-transform: none; white-space: normal; widows: auto; word-spacing: 0px; -webkit-text-stroke-width: 0px; text-decoration: none;&quot;&gt;&lt;i&gt;&lt;font face=&quot;Times New Roman&quot; size=&quot;4&quot;&gt;\(\alpha_\psi^i\)&lt;/font&gt;&lt;/i&gt;&lt;/b&gt;" style="text;whiteSpace=wrap;html=1;" parent="1" vertex="1">
          <mxGeometry x="340" y="-433" width="30" height="40" as="geometry" />
        </mxCell>
        <UserObject label="" tags="连接线" id="OjidHEwg86gl5rYj82kp-219">
          <mxCell style="vsdxID=289;edgeStyle=none;startArrow=none;endArrow=block;startSize=5;endSize=5;strokeWidth=3;strokeColor=#0070c0;spacingTop=0;spacingBottom=0;spacingLeft=0;spacingRight=0;verticalAlign=middle;html=1;labelBackgroundColor=#FFFFFF;rounded=0;exitX=0.5;exitY=1.021;exitDx=0;exitDy=0;exitPerimeter=0;" parent="1" edge="1">
            <mxGeometry relative="1" as="geometry">
              <mxPoint as="offset" />
              <Array as="points" />
              <mxPoint x="616" y="-655.7860000000001" as="sourcePoint" />
              <mxPoint x="616" y="-630" as="targetPoint" />
            </mxGeometry>
          </mxCell>
        </UserObject>
        <mxCell id="OjidHEwg86gl5rYj82kp-220" value="&lt;i style=&quot;caret-color: rgb(0, 0, 0); color: rgb(0, 0, 0); font-family: &amp;quot;Times New Roman&amp;quot;; font-size: 18px; font-variant-caps: normal; font-weight: 400; letter-spacing: normal; orphans: auto; text-align: center; text-indent: 0px; text-transform: none; white-space: normal; widows: auto; word-spacing: 0px; -webkit-text-stroke-width: 0px; text-decoration: none;&quot;&gt;&lt;b&gt;\(sg(x_e^i)\)&lt;/b&gt;&lt;/i&gt;" style="text;whiteSpace=wrap;html=1;" parent="1" vertex="1">
          <mxGeometry x="625" y="-657.75" width="60" height="30" as="geometry" />
        </mxCell>
        <mxCell id="OjidHEwg86gl5rYj82kp-221" value="&lt;i style=&quot;caret-color: rgb(0, 0, 0); color: rgb(0, 0, 0); font-family: &amp;quot;Times New Roman&amp;quot;; font-size: 18px; font-variant-caps: normal; font-weight: 400; letter-spacing: normal; text-align: center; text-indent: 0px; text-transform: none; white-space: normal; word-spacing: 0px; -webkit-text-stroke-width: 0px; text-decoration: none;&quot;&gt;&lt;b&gt;&lt;span class=&quot;Apple-converted-space&quot;&gt;&amp;nbsp;&lt;/span&gt;\(x_e^i\)&lt;/b&gt;&lt;/i&gt;" style="text;whiteSpace=wrap;html=1;" parent="1" vertex="1">
          <mxGeometry x="460" y="-676.5" width="24.5" height="25" as="geometry" />
        </mxCell>
        <mxCell id="OjidHEwg86gl5rYj82kp-222" value="&lt;i style=&quot;caret-color: rgb(0, 0, 0); color: rgb(0, 0, 0); font-family: &amp;quot;Times New Roman&amp;quot;; font-size: 18px; font-variant-caps: normal; font-weight: 400; letter-spacing: normal; text-align: center; text-indent: 0px; text-transform: none; white-space: normal; word-spacing: 0px; -webkit-text-stroke-width: 0px; text-decoration: none;&quot;&gt;&lt;b&gt;&lt;span class=&quot;Apple-converted-space&quot;&gt;&amp;nbsp;&lt;/span&gt;\(y_e^i\)&lt;/b&gt;&lt;/i&gt;" style="text;whiteSpace=wrap;html=1;" parent="1" vertex="1">
          <mxGeometry x="464.5" y="-520" width="27" height="27" as="geometry" />
        </mxCell>
        <mxCell id="OjidHEwg86gl5rYj82kp-224" value="&lt;i style=&quot;caret-color: rgb(0, 0, 0); color: rgb(0, 0, 0); font-family: &amp;quot;Times New Roman&amp;quot;; font-size: 18px; font-variant-caps: normal; font-weight: 400; letter-spacing: normal; text-align: center; text-indent: 0px; text-transform: none; white-space: normal; word-spacing: 0px; -webkit-text-stroke-width: 0px; text-decoration: none;&quot;&gt;&lt;b&gt;&lt;span class=&quot;Apple-converted-space&quot;&gt;&amp;nbsp;&lt;/span&gt;\(\psi_e^i\)&lt;/b&gt;&lt;/i&gt;" style="text;whiteSpace=wrap;html=1;" parent="1" vertex="1">
          <mxGeometry x="464.5" y="-376.5" width="38" height="40" as="geometry" />
        </mxCell>
        <UserObject label="" tags="连接线" id="OjidHEwg86gl5rYj82kp-227">
          <mxCell style="vsdxID=289;edgeStyle=none;startArrow=none;endArrow=block;startSize=5;endSize=5;strokeWidth=3;strokeColor=#0070c0;spacingTop=0;spacingBottom=0;spacingLeft=0;spacingRight=0;verticalAlign=middle;html=1;labelBackgroundColor=#FFFFFF;rounded=0;exitX=0.5;exitY=1.021;exitDx=0;exitDy=0;exitPerimeter=0;entryX=0.574;entryY=-0.034;entryDx=0;entryDy=0;entryPerimeter=0;" parent="1" edge="1">
            <mxGeometry relative="1" as="geometry">
              <mxPoint as="offset" />
              <Array as="points" />
              <mxPoint x="616.19" y="-506.1" as="sourcePoint" />
              <mxPoint x="616.0000000000001" y="-473.504" as="targetPoint" />
            </mxGeometry>
          </mxCell>
        </UserObject>
        <UserObject label="" tags="连接线" id="OjidHEwg86gl5rYj82kp-228">
          <mxCell style="vsdxID=289;edgeStyle=none;startArrow=none;endArrow=block;startSize=5;endSize=5;strokeWidth=3;strokeColor=#0070c0;spacingTop=0;spacingBottom=0;spacingLeft=0;spacingRight=0;verticalAlign=middle;html=1;labelBackgroundColor=#FFFFFF;rounded=0;exitX=0.504;exitY=-0.002;exitDx=0;exitDy=0;exitPerimeter=0;entryX=0.514;entryY=1.001;entryDx=0;entryDy=0;entryPerimeter=0;" parent="1" source="OjidHEwg86gl5rYj82kp-176" target="OjidHEwg86gl5rYj82kp-201" edge="1">
            <mxGeometry relative="1" as="geometry">
              <mxPoint as="offset" />
              <Array as="points" />
              <mxPoint x="629.19" y="-496.1" as="sourcePoint" />
              <mxPoint x="629.0000000000001" y="-463.504" as="targetPoint" />
            </mxGeometry>
          </mxCell>
        </UserObject>
        <UserObject label="" tags="连接线" id="OjidHEwg86gl5rYj82kp-229">
          <mxCell style="vsdxID=289;edgeStyle=none;startArrow=none;endArrow=block;startSize=5;endSize=5;strokeWidth=3;strokeColor=#0070c0;spacingTop=0;spacingBottom=0;spacingLeft=0;spacingRight=0;verticalAlign=middle;html=1;labelBackgroundColor=#FFFFFF;rounded=0;exitX=0.5;exitY=1.021;exitDx=0;exitDy=0;exitPerimeter=0;entryX=0.574;entryY=-0.034;entryDx=0;entryDy=0;entryPerimeter=0;" parent="1" edge="1">
            <mxGeometry relative="1" as="geometry">
              <mxPoint as="offset" />
              <Array as="points" />
              <mxPoint x="619.19" y="-355" as="sourcePoint" />
              <mxPoint x="619.0000000000001" y="-322.404" as="targetPoint" />
            </mxGeometry>
          </mxCell>
        </UserObject>
        <mxCell id="OjidHEwg86gl5rYj82kp-230" value="&lt;i style=&quot;caret-color: rgb(0, 0, 0); color: rgb(0, 0, 0); font-family: &amp;quot;Times New Roman&amp;quot;; font-size: 18px; font-variant-caps: normal; font-weight: 400; letter-spacing: normal; orphans: auto; text-align: center; text-indent: 0px; text-transform: none; white-space: normal; widows: auto; word-spacing: 0px; -webkit-text-stroke-width: 0px; text-decoration: none;&quot;&gt;&lt;b&gt;\(sg(y_e^i)\)&lt;/b&gt;&lt;/i&gt;" style="text;whiteSpace=wrap;html=1;" parent="1" vertex="1">
          <mxGeometry x="630" y="-507" width="50" height="30" as="geometry" />
        </mxCell>
        <mxCell id="OjidHEwg86gl5rYj82kp-231" value="&lt;i style=&quot;caret-color: rgb(0, 0, 0); color: rgb(0, 0, 0); font-family: &amp;quot;Times New Roman&amp;quot;; font-size: 18px; font-variant-caps: normal; font-weight: 400; letter-spacing: normal; orphans: auto; text-align: center; text-indent: 0px; text-transform: none; white-space: normal; widows: auto; word-spacing: 0px; -webkit-text-stroke-width: 0px; text-decoration: none;&quot;&gt;&lt;b&gt;\(sg(\psi_e^i)\)&lt;/b&gt;&lt;/i&gt;" style="text;whiteSpace=wrap;html=1;" parent="1" vertex="1">
          <mxGeometry x="625" y="-416.5" width="50" height="30" as="geometry" />
        </mxCell>
        <mxCell id="OjidHEwg86gl5rYj82kp-232" value="&lt;i style=&quot;caret-color: rgb(0, 0, 0); color: rgb(0, 0, 0); font-family: &amp;quot;Times New Roman&amp;quot;; font-size: 18px; font-variant-caps: normal; font-weight: 400; letter-spacing: normal; orphans: auto; text-align: center; text-indent: 0px; text-transform: none; white-space: normal; widows: auto; word-spacing: 0px; -webkit-text-stroke-width: 0px; text-decoration: none;&quot;&gt;&lt;b&gt;\(sg(\psi_e^i)\)&lt;/b&gt;&lt;/i&gt;" style="text;whiteSpace=wrap;html=1;" parent="1" vertex="1">
          <mxGeometry x="627" y="-359" width="50" height="30" as="geometry" />
        </mxCell>
        <UserObject label="" tags="连接线" id="OjidHEwg86gl5rYj82kp-233">
          <mxCell style="vsdxID=289;edgeStyle=none;startArrow=none;endArrow=block;startSize=5;endSize=5;strokeWidth=3;strokeColor=#0070c0;spacingTop=0;spacingBottom=0;spacingLeft=0;spacingRight=0;verticalAlign=middle;html=1;labelBackgroundColor=#FFFFFF;rounded=0;exitX=1;exitY=0.5;exitDx=0;exitDy=0;exitPerimeter=0;" parent="1" source="OjidHEwg86gl5rYj82kp-199" edge="1">
            <mxGeometry relative="1" as="geometry">
              <mxPoint as="offset" />
              <Array as="points" />
              <mxPoint x="740" y="-670" as="sourcePoint" />
              <mxPoint x="837" y="-600" as="targetPoint" />
            </mxGeometry>
          </mxCell>
        </UserObject>
        <UserObject label="" tags="连接线" id="OjidHEwg86gl5rYj82kp-234">
          <mxCell style="vsdxID=289;edgeStyle=none;startArrow=none;endArrow=block;startSize=5;endSize=5;strokeWidth=3;strokeColor=#0070c0;spacingTop=0;spacingBottom=0;spacingLeft=0;spacingRight=0;verticalAlign=middle;html=1;labelBackgroundColor=#FFFFFF;rounded=0;exitX=1;exitY=0.5;exitDx=0;exitDy=0;exitPerimeter=0;entryX=0.617;entryY=1.009;entryDx=0;entryDy=0;entryPerimeter=0;" parent="1" source="OjidHEwg86gl5rYj82kp-201" target="OjidHEwg86gl5rYj82kp-152" edge="1">
            <mxGeometry relative="1" as="geometry">
              <mxPoint as="offset" />
              <Array as="points" />
              <mxPoint x="739" y="-444.29" as="sourcePoint" />
              <mxPoint x="842" y="-444.29" as="targetPoint" />
            </mxGeometry>
          </mxCell>
        </UserObject>
        <UserObject label="" tags="连接线" id="OjidHEwg86gl5rYj82kp-235">
          <mxCell style="vsdxID=289;edgeStyle=none;startArrow=none;endArrow=block;startSize=5;endSize=5;strokeWidth=3;strokeColor=#0070c0;spacingTop=0;spacingBottom=0;spacingLeft=0;spacingRight=0;verticalAlign=middle;html=1;labelBackgroundColor=#FFFFFF;rounded=0;exitX=1;exitY=0.5;exitDx=0;exitDy=0;exitPerimeter=0;entryX=0.894;entryY=1.035;entryDx=0;entryDy=0;entryPerimeter=0;" parent="1" source="OjidHEwg86gl5rYj82kp-200" target="OjidHEwg86gl5rYj82kp-152" edge="1">
            <mxGeometry relative="1" as="geometry">
              <mxPoint as="offset" />
              <Array as="points" />
              <mxPoint x="739" y="-294.37" as="sourcePoint" />
              <mxPoint x="837" y="-294" as="targetPoint" />
            </mxGeometry>
          </mxCell>
        </UserObject>
        <mxCell id="OjidHEwg86gl5rYj82kp-236" value="&lt;b style=&quot;caret-color: rgb(0, 0, 0); color: rgb(0, 0, 0); font-family: Helvetica; font-style: normal; font-variant-caps: normal; letter-spacing: normal; text-align: center; text-indent: 0px; text-transform: none; white-space: normal; word-spacing: 0px; -webkit-text-stroke-width: 0px; text-decoration: none;&quot;&gt;&lt;i&gt;&lt;font face=&quot;Times New Roman&quot;&gt;&lt;span class=&quot;Apple-converted-space&quot;&gt;&amp;nbsp;&lt;/span&gt;\(\alpha_u^i\)&lt;/font&gt;&lt;/i&gt;&lt;/b&gt;" style="text;whiteSpace=wrap;html=1;fontSize=23;" parent="1" vertex="1">
          <mxGeometry x="745" y="-666.5" width="30" height="57.75" as="geometry" />
        </mxCell>
        <mxCell id="OjidHEwg86gl5rYj82kp-237" value="&lt;b style=&quot;caret-color: rgb(0, 0, 0); color: rgb(0, 0, 0); font-family: Helvetica; font-style: normal; font-variant-caps: normal; letter-spacing: normal; text-align: center; text-indent: 0px; text-transform: none; white-space: normal; word-spacing: 0px; -webkit-text-stroke-width: 0px; text-decoration: none;&quot;&gt;&lt;i&gt;&lt;font face=&quot;Times New Roman&quot;&gt;\(\alpha_\psi^i\)&lt;/font&gt;&lt;/i&gt;&lt;/b&gt;" style="text;whiteSpace=wrap;html=1;fontSize=23;" parent="1" vertex="1">
          <mxGeometry x="748" y="-487" width="30" height="30" as="geometry" />
        </mxCell>
        <mxCell id="OjidHEwg86gl5rYj82kp-238" value="&lt;b style=&quot;caret-color: rgb(0, 0, 0); color: rgb(0, 0, 0); font-family: Helvetica; font-style: normal; font-variant-caps: normal; letter-spacing: normal; text-align: center; text-indent: 0px; text-transform: none; white-space: normal; word-spacing: 0px; -webkit-text-stroke-width: 0px; text-decoration: none;&quot;&gt;&lt;i&gt;&lt;font face=&quot;Times New Roman&quot;&gt;\(\alpha_r^i\)&lt;/font&gt;&lt;/i&gt;&lt;/b&gt;" style="text;whiteSpace=wrap;html=1;fontSize=23;" parent="1" vertex="1">
          <mxGeometry x="753" y="-331" width="35" height="31" as="geometry" />
        </mxCell>
      </root>
    </mxGraphModel>
  </diagram>
</mxfile>
